<?xml version="1.0" encoding="UTF-8" standalone="no"?>
<!-- Created with Inkscape (http://www.inkscape.org/) -->

<svg
   width="2992.3545"
   height="938.4187"
   viewBox="0 0 791.72713 248.28995"
   version="1.1"
   id="svg1"
   inkscape:version="1.3.2 (091e20ef0f, 2023-11-25)"
   sodipodi:docname="humanmade-logo.svg"
   xml:space="preserve"
   xmlns:inkscape="http://www.inkscape.org/namespaces/inkscape"
   xmlns:sodipodi="http://sodipodi.sourceforge.net/DTD/sodipodi-0.dtd"
   xmlns="http://www.w3.org/2000/svg"
   xmlns:svg="http://www.w3.org/2000/svg"><sodipodi:namedview
     id="namedview1"
     pagecolor="#969696"
     bordercolor="#000000"
     borderopacity="0.25"
     inkscape:showpageshadow="true"
     inkscape:pageopacity="0.0"
     inkscape:pagecheckerboard="true"
     inkscape:deskcolor="#d1d1d1"
     inkscape:document-units="mm"
     borderlayer="true"
     showgrid="false"
     inkscape:zoom="0.60939621"
     inkscape:cx="6849.4026"
     inkscape:cy="1156.0623"
     inkscape:window-width="3776"
     inkscape:window-height="2027"
     inkscape:window-x="26"
     inkscape:window-y="23"
     inkscape:window-maximized="0"
     inkscape:current-layer="layer1"
     labelstyle="below"
     inkscape:clip-to-page="false"><inkscape:grid
       id="grid1"
       units="mm"
       originx="-112.13647"
       originy="-161.60503"
       spacingx="4.9999999"
       spacingy="4.9999999"
       empcolor="#0099e5"
       empopacity="0.30196078"
       color="#0099e5"
       opacity="0.14901961"
       empspacing="5"
       dotted="false"
       gridanglex="30"
       gridanglez="30"
       visible="false" /><inkscape:page
       x="4.550182e-06"
       y="-1.2897736e-06"
       width="791.72711"
       height="248.28995"
       id="page3"
       margin="0"
       bleed="0" /></sodipodi:namedview><defs
     id="defs1" /><g
     inkscape:label="Layer 1"
     inkscape:groupmode="layer"
     id="layer1"
     transform="translate(-112.13647,-161.60503)"><rect
       style="fill:none;fill-opacity:1;stroke:#000000;stroke-width:7.23527;stroke-dasharray:none;stroke-opacity:1"
       id="rect1-5-8-5-6-1"
       width="784.49182"
       height="241.05469"
       x="115.75409"
       y="165.22266"
       inkscape:export-filename="black-logo.png"
       inkscape:export-xdpi="160.4088"
       inkscape:export-ydpi="160.4088" /><g
       id="g3-6-5-4-22-3-2-5"
       transform="matrix(3.5728018,0,0,3.5728018,516.22174,432.47915)"
       style="fill:#000000;fill-opacity:1;stroke:none;stroke-width:1.24722;stroke-dasharray:none;stroke-opacity:1"><g
         id="g2-9-3-6-3-61-5-6-9"
         transform="translate(-63.165427,8.6885308)"
         style="fill:#000000;fill-opacity:1;stroke:none;stroke-width:1.24722;stroke-dasharray:none;stroke-opacity:1"><path
           d="M -9.3818454,-34.984412 H -20.824212 c -0.552285,0 -1,-0.447716 -1,-1 v -3 h -3.115947 c -0.552285,0 -1,-0.447716 -1,-1 v -4.171343 l -3.447,-1.718 c -0.538645,-0.268902 -0.719306,-0.949315 -0.385,-1.45 l 3.832,-5.75 v -1.7 c 0.0013,-6.07422 4.925783,-10.99765 11,-10.99765 6.0742161,0 10.9987046,4.92343 10.9999996,10.99765 -0.2467472,10.87342 -4.204739,9.190023 -4.3689902,13.304632 l -0.072696,5.484711 c -0.00366,0.276118 -0.1119288,0.526142 -0.2928932,0.707107 -0.1809644,0.180964 -0.4309645,0.292893 -0.7071066,0.292893 z m -10.4423666,-2 h 9.442366 l 0.11163,-5.682594 c -0.102553,-2.601106 4.5783172,-3.221492 4.3300566,-12.010667 -0.1403201,-4.967757 -4.030265,-9.093957 -8.9999996,-9.093957 -4.969734,0 -8.998829,4.028137 -9,8.997875 v 2 c -3.12e-4,0.197479 -0.05874,0.390499 -0.168,0.555 l -3.372,5.057 2.987,1.493 c 0.339052,0.169425 0.553177,0.515974 0.553,0.895 v 3.789343 h 3.115947 c 0.552285,0 1,0.447715 1,1 z"
           id="path1-5-94-2-1-0-6-1-4"
           style="fill:#000000;fill-opacity:1;stroke:none;stroke-width:1.24722;stroke-dasharray:none;stroke-opacity:1"
           sodipodi:nodetypes="ssscsscccccsccssscccsscccccccssc" /></g></g><circle
       style="fill:none;fill-opacity:1;stroke:#000000;stroke-width:8.27768;stroke-dasharray:none;stroke-opacity:1"
       id="path3-6-9-9-7-0"
       cx="236.36807"
       cy="286.07687"
       r="78.625557" /><path
       style="font-weight:bold;font-size:75.2748px;line-height:0;font-family:'Liberation Sans';-inkscape-font-specification:'Liberation Sans Bold';letter-spacing:0.0156823px;word-spacing:0.00784119px;stroke-width:1.99172"
       d="m 411.23011,270.39825 v -22.20018 h -22.56774 v 22.20018 h -10.84281 v -51.78818 h 10.84281 v 20.61971 h 22.56774 v -20.61971 h 10.8428 v 51.78818 z m 42.50478,0.73511 q -10.69579,0 -16.39286,-5.21925 -5.66031,-5.21925 -5.66031,-14.92264 v -32.3814 h 10.84281 v 31.53603 q 0,6.13813 2.90367,9.33584 2.94042,3.16095 8.60073,3.16095 5.80733,0 8.93153,-3.30797 3.1242,-3.34473 3.1242,-9.55637 v -31.16848 h 10.84281 v 31.83007 q 0,9.85041 -6.10138,15.29019 -6.06462,5.40303 -17.0912,5.40303 z m 75.84181,-0.73511 v -31.389 q 0,-1.0659 0,-2.13181 0.0368,-1.0659 0.36756,-9.15206 -2.60963,9.88717 -3.85931,13.78323 l -9.33584,28.88964 h -7.7186 l -9.33584,-28.88964 -3.93282,-13.78323 q 0.44106,8.52722 0.44106,11.28387 v 31.389 h -9.62988 v -51.78818 h 14.51834 l 9.26233,28.96316 0.80861,2.7934 1.76425,6.94675 2.31559,-8.3067 9.51961,-30.39661 h 14.44483 v 51.78818 z m 56.32476,0 -4.59441,-13.23189 h -19.73758 l -4.59441,13.23189 h -10.8428 l 18.89221,-51.78818 h 12.79083 l 18.8187,51.78818 z m -14.48158,-43.81228 -0.22053,0.80861 q -0.36755,1.32319 -0.88212,3.01394 -0.51458,1.69074 -6.32191,18.59816 h 14.88589 l -5.10899,-14.88588 -1.58047,-4.99872 z m 63.78609,43.81228 -22.56773,-39.87947 q 0.66159,5.80733 0.66159,9.33584 v 30.54363 h -9.62988 v -51.78818 h 12.38653 l 22.89853,40.21027 q -0.66159,-5.55004 -0.66159,-10.1077 v -30.10257 h 9.62988 v 51.78818 z m 86.78166,0 v -31.389 q 0,-1.0659 0,-2.13181 0.0368,-1.0659 0.36755,-9.15206 -2.60962,9.88717 -3.8593,13.78323 l -9.33584,28.88964 h -7.71861 l -9.33584,-28.88964 -3.93281,-13.78323 q 0.44106,8.52722 0.44106,11.28387 v 31.389 h -9.62988 v -51.78818 h 14.51833 l 9.26233,28.96316 0.80862,2.7934 1.76425,6.94675 2.31558,-8.3067 9.51962,-30.39661 h 14.44482 v 51.78818 z m 56.32477,0 -4.59441,-13.23189 h -19.73758 l -4.59441,13.23189 h -10.84281 l 18.89221,-51.78818 h 12.79084 l 18.8187,51.78818 z m -14.48158,-43.81228 -0.22053,0.80861 q -0.36756,1.32319 -0.88213,3.01394 -0.51457,1.69074 -6.32191,18.59816 h 14.88589 l -5.10898,-14.88588 -1.58048,-4.99872 z m 78.41469,17.53226 q 0,8.01265 -3.16096,14.00376 -3.12419,5.95436 -8.89477,9.11531 -5.73382,3.16095 -13.15839,3.16095 h -20.95051 v -51.78818 h 18.74519 q 13.08488,0 20.25216,6.61595 7.16728,6.5792 7.16728,18.89221 z m -10.91632,0 q 0,-8.34344 -4.33712,-12.71732 -4.33712,-4.41064 -12.38653,-4.41064 h -7.68185 v 35.02778 h 9.18882 q 6.9835,0 11.10009,-4.81494 4.11659,-4.81494 4.11659,-13.08488 z m 19.12843,26.28002 v -51.78818 h 40.72485 v 8.3802 h -29.88204 v 13.01137 h 27.63997 v 8.3802 h -27.63997 v 13.63621 h 31.389 v 8.3802 z"
       id="text4-3-2-7-3-7-9-9"
       transform="scale(0.94891957,1.0538301)"
       aria-label="HUMAN MADE" /><path
       style="font-weight:bold;font-size:41.7027px;line-height:0;font-family:'Liberation Sans';-inkscape-font-specification:'Liberation Sans Bold';letter-spacing:0.00868811px;word-spacing:0.00434407px;stroke-width:1.10342"
       d="m 389.37507,337.22388 v -12.29904 h -12.50266 v 12.29904 h -6.00698 v -28.69097 h 6.00698 v 11.42344 h 12.50266 v -11.42344 h 6.00698 v 28.69097 z m 23.54791,0.40725 q -5.92553,0 -9.08174,-2.8915 -3.13585,-2.89149 -3.13585,-8.26723 v -17.93949 h 6.00699 v 17.47115 q 0,3.40056 1.60864,5.17211 1.62902,1.75119 4.76486,1.75119 3.2173,0 4.94813,-1.83264 1.73082,-1.853 1.73082,-5.29429 v -17.26752 h 6.00698 v 17.63405 q 0,5.45719 -3.3802,8.47086 -3.35983,2.99331 -9.46863,2.99331 z m 42.01683,-0.40725 v -17.3897 q 0,-0.59052 0,-1.18104 0.0204,-0.59051 0.20363,-5.0703 -1.44575,5.47756 -2.13808,7.636 l -5.17211,16.00504 h -4.27616 l -5.17211,-16.00504 -2.1788,-7.636 q 0.24435,4.72414 0.24435,6.25134 v 17.3897 h -5.33501 v -28.69097 h 8.04324 l 5.13139,16.04576 0.44798,1.54756 0.9774,3.84854 1.28285,-4.60195 5.27393,-16.83991 h 8.00252 v 28.69097 z m 31.20427,0 -2.54534,-7.33056 H 472.664 l -2.54533,7.33056 h -6.00698 l 10.4664,-28.69097 h 7.0862 l 10.42568,28.69097 z m -8.02289,-24.27228 -0.12217,0.44798 q -0.20363,0.73305 -0.48871,1.66974 -0.28507,0.93668 -3.50237,10.3035 h 8.24687 l -2.83041,-8.24688 -0.87559,-2.76932 z m 35.33789,24.27228 -12.50267,-22.09348 q 0.36653,3.2173 0.36653,5.17212 v 16.92136 h -5.33502 v -28.69097 h 6.86222 l 12.68593,22.27673 q -0.36653,-3.07476 -0.36653,-5.59972 v -16.67701 h 5.33501 v 28.69097 z m 36.47819,0 v -17.3897 q 0,-0.59052 0,-1.18104 0.0204,-0.59051 0.20362,-5.0703 -1.44574,5.47756 -2.13807,7.636 l -5.17212,16.00504 h -4.27615 l -5.17211,-16.00504 -2.17881,-7.636 q 0.24435,4.72414 0.24435,6.25134 v 17.3897 h -5.33501 v -28.69097 h 8.04325 l 5.13138,16.04576 0.44798,1.54756 0.97741,3.84854 1.28285,-4.60195 5.27392,-16.83991 h 8.00252 v 28.69097 z m 31.20426,0 -2.54533,-7.33056 h -10.93474 l -2.54534,7.33056 h -6.00698 l 10.4664,-28.69097 h 7.08621 l 10.42567,28.69097 z m -8.02289,-24.27228 -0.12217,0.44798 q -0.20363,0.73305 -0.4887,1.66974 -0.28508,0.93668 -3.50238,10.3035 h 8.24687 l -2.83041,-8.24688 -0.87559,-2.76932 z m 43.44222,9.71298 q 0,4.43906 -1.75119,7.75817 -1.73082,3.29875 -4.92776,5.04994 -3.17657,1.75119 -7.28982,1.75119 h -11.60671 v -28.69097 h 10.38495 q 7.2491,0 11.21982,3.66527 3.97071,3.64492 3.97071,10.4664 z m -6.0477,0 q 0,-4.62232 -2.4028,-7.04547 -2.40279,-2.44352 -6.86221,-2.44352 h -4.25579 v 19.4056 h 5.09066 q 3.8689,0 6.14952,-2.6675 2.28062,-2.66751 2.28062,-7.24911 z m 10.59726,14.5593 v -28.69097 h 22.56182 v 4.64268 H 627.1174 v 7.20838 h 15.31271 v 4.64268 H 627.1174 v 7.55454 h 17.3897 v 4.64269 z m 51.64837,0 v -17.3897 q 0,-0.59052 0,-1.18104 0.0204,-0.59051 0.20362,-5.0703 -1.44575,5.47756 -2.13808,7.636 l -5.17211,16.00504 h -4.27615 l -5.17212,-16.00504 -2.1788,-7.636 q 0.24435,4.72414 0.24435,6.25134 v 17.3897 h -5.33501 v -28.69097 h 8.04324 l 5.13139,16.04576 0.44798,1.54756 0.97741,3.84854 1.28284,-4.60195 5.27393,-16.83991 h 8.00252 v 28.69097 z m 31.20427,0 -2.54533,-7.33056 h -10.93474 l -2.54533,7.33056 h -6.00698 l 10.4664,-28.69097 h 7.0862 l 10.42567,28.69097 z m -8.02288,-24.27228 -0.12218,0.44798 q -0.20362,0.73305 -0.4887,1.66974 -0.28508,0.93668 -3.50238,10.3035 h 8.24688 l -2.83041,-8.24688 -0.8756,-2.76932 z m 37.57776,24.27228 -6.65859,-10.89402 h -7.04547 v 10.89402 h -6.00699 v -28.69097 h 14.33531 q 5.13139,0 7.92107,2.21953 2.78968,2.19916 2.78968,6.33278 0,3.01367 -1.71046,5.21284 -1.71046,2.1788 -4.62232,2.87113 l 7.75817,12.05469 z m -0.7127,-19.89431 q 0,-4.13362 -5.29428,-4.13362 h -7.69708 v 8.47086 h 7.85998 q 2.52497,0 3.82818,-1.1403 1.3032,-1.14031 1.3032,-3.19694 z m 30.9803,19.89431 -10.3035,-13.17464 -3.5431,2.70824 v 10.4664 h -6.00698 v -28.69097 h 6.00698 v 13.01173 l 12.93028,-13.01173 h 7.00475 l -12.25832,12.13613 13.25609,16.55484 z m 10.31217,0 v -6.21061 h 5.88481 v 6.21061 z m 24.95293,-4.31688 q 5.43683,0 7.55454,-5.45719 l 5.2332,1.97517 q -1.6901,4.15398 -4.96848,6.19025 -3.25803,2.0159 -7.81926,2.0159 -6.9233,0 -10.71075,-3.90963 -3.76709,-3.92999 -3.76709,-10.97547 0,-7.06583 3.64491,-10.85329 3.64492,-3.78745 10.56822,-3.78745 5.04993,0 8.2265,2.03627 3.17658,2.0159 4.45942,5.94589 l -5.29428,1.44575 q -0.67197,-2.15844 -2.64715,-3.42093 -1.95481,-1.28284 -4.62232,-1.28284 -4.07253,0 -6.19024,2.52496 -2.09736,2.52497 -2.09736,7.39164 0,4.94813 2.15844,7.55455 2.17881,2.60642 6.2717,2.60642 z m 44.62327,-10.16097 q 0,4.47979 -1.77155,7.88035 -1.77155,3.40056 -5.0703,5.21284 -3.29875,1.79191 -7.69708,1.79191 -6.7604,0 -10.60894,-3.97072 -3.82818,-3.99108 -3.82818,-10.91438 0,-6.90293 3.82818,-10.77184 3.82817,-3.8689 10.64966,-3.8689 6.82149,0 10.64967,3.90963 3.84854,3.90963 3.84854,10.73111 z m -6.12916,0 q 0,-4.64268 -2.19917,-7.26946 -2.19916,-2.64714 -6.16988,-2.64714 -4.0318,0 -6.23097,2.62678 -2.19917,2.60642 -2.19917,7.28982 0,4.72414 2.2399,7.45273 2.26025,2.70824 6.14952,2.70824 4.0318,0 6.2106,-2.64715 2.19917,-2.64714 2.19917,-7.51382 z m 34.50301,14.47785 v -17.3897 q 0,-0.59052 0,-1.18104 0.0204,-0.59051 0.20362,-5.0703 -1.44574,5.47756 -2.13807,7.636 l -5.17212,16.00504 h -4.27615 l -5.17212,-16.00504 -2.1788,-7.636 q 0.24435,4.72414 0.24435,6.25134 v 17.3897 h -5.33501 v -28.69097 h 8.04325 l 5.13138,16.04576 0.44798,1.54756 0.97741,3.84854 1.28284,-4.60195 5.27393,-16.83991 h 8.00252 v 28.69097 z"
       id="text4-3-2-7-3-7-5-0-7"
       transform="scale(0.9654736,1.0357611)"
       aria-label="HUMANMADEMARK.COM" /><path
       style="fill:#000000;fill-opacity:1;stroke:#000000;stroke-width:8.78767;stroke-dasharray:none;stroke-opacity:1"
       d="m 343.6367,302.42594 508.80362,9e-5 h 9.5338"
       id="path4-1-1-9-3-1" /><g
       id="g3"
       transform="matrix(3.6103279,0,0,3.6103279,125.58535,239.6035)"><g
         id="g6"
         transform="translate(8.3274651,-15.941644)"><path
           d="m 23.345961,35.391177 v -7.459282 c 0.04574,0 0.09148,0.0073 0.137225,0.0073 3.777633,-0.0049 6.593209,-3.485154 5.809201,-7.180538 -0.07516,-0.353276 -0.351147,-0.629258 -0.704423,-0.704423 -3.134684,-0.669475 -6.23409,1.272819 -6.998486,4.385718 -0.0091,-0.0091 -0.01647,-0.01921 -0.02561,-0.02836 -1.420651,-1.426268 -3.468264,-2.033696 -5.436863,-1.612854 -0.353276,0.07516 -0.629258,0.351148 -0.704423,0.704423 -0.783931,3.695019 2.031027,7.175034 5.808286,7.180538 0.09148,0 0.190286,-0.01098 0.285428,-0.01555 v 4.723028 z m 1.097802,-12.430494 c 0.828401,-0.829409 1.971105,-1.266325 3.141542,-1.201178 0.135018,2.451803 -1.889974,4.477223 -4.341805,4.342721 -0.06859,-1.170797 0.36847,-2.314748 1.200263,-3.141543 z m -6.112926,4.684869 c -0.83269,-0.826561 -1.271597,-1.970116 -1.205753,-3.141543 2.453263,-0.138246 4.480569,1.889488 4.341806,4.342721 -1.169154,0.06559 -2.310626,-0.37149 -3.136968,-1.201178 z"
           id="path1"
           sodipodi:nodetypes="cccccccccccccccccccccc"
           style="stroke-width:0.914835" /></g></g></g></svg>
