<?xml version="1.0" encoding="UTF-8" standalone="no"?>
<!-- Created with Inkscape (http://www.inkscape.org/) -->

<svg
   width="2992.3545"
   height="938.4187"
   viewBox="0 0 791.72713 248.28995"
   version="1.1"
   id="svg1"
   inkscape:version="1.3.2 (091e20ef0f, 2023-11-25)"
   sodipodi:docname="humanmade-logo.svg"
   xml:space="preserve"
   xmlns:inkscape="http://www.inkscape.org/namespaces/inkscape"
   xmlns:sodipodi="http://sodipodi.sourceforge.net/DTD/sodipodi-0.dtd"
   xmlns="http://www.w3.org/2000/svg"
   xmlns:svg="http://www.w3.org/2000/svg"><sodipodi:namedview
     id="namedview1"
     pagecolor="#ffffff"
     bordercolor="#000000"
     borderopacity="0.25"
     inkscape:showpageshadow="true"
     inkscape:pageopacity="0.0"
     inkscape:pagecheckerboard="true"
     inkscape:deskcolor="#d1d1d1"
     inkscape:document-units="mm"
     borderlayer="true"
     showgrid="false"
     inkscape:zoom="0.29296875"
     inkscape:cx="4307.6267"
     inkscape:cy="1288.5333"
     inkscape:window-width="3776"
     inkscape:window-height="2027"
     inkscape:window-x="26"
     inkscape:window-y="23"
     inkscape:window-maximized="0"
     inkscape:current-layer="layer1"
     labelstyle="below"
     inkscape:clip-to-page="false"><inkscape:grid
       id="grid1"
       units="mm"
       originx="-112.13647"
       originy="-161.60503"
       spacingx="4.9999999"
       spacingy="4.9999999"
       empcolor="#0099e5"
       empopacity="0.30196078"
       color="#0099e5"
       opacity="0.14901961"
       empspacing="5"
       dotted="false"
       gridanglex="30"
       gridanglez="30"
       visible="false" /><inkscape:page
       x="4.550182e-06"
       y="-1.2897736e-06"
       width="791.72711"
       height="248.28995"
       id="page3"
       margin="0"
       bleed="0" /></sodipodi:namedview><defs
     id="defs1" /><g
     inkscape:label="Layer 1"
     inkscape:groupmode="layer"
     id="layer1"
     transform="translate(-112.13647,-161.60503)"><rect
       style="fill:none;fill-opacity:1;stroke:#000000;stroke-width:7.23527;stroke-dasharray:none;stroke-opacity:1"
       id="rect1-5-8-5-6-1"
       width="784.49182"
       height="241.05469"
       x="115.75409"
       y="165.22266"
       inkscape:export-filename="black-logo.png"
       inkscape:export-xdpi="160.4088"
       inkscape:export-ydpi="160.4088" /><g
       id="g3-6-5-4-22-3-2-5"
       transform="matrix(3.5728018,0,0,3.5728018,516.22174,432.47915)"
       style="fill:#000000;fill-opacity:1;stroke:none;stroke-width:1.24722;stroke-dasharray:none;stroke-opacity:1"><g
         id="g2-9-3-6-3-61-5-6-9"
         transform="translate(-63.165427,8.6885308)"
         style="fill:#000000;fill-opacity:1;stroke:none;stroke-width:1.24722;stroke-dasharray:none;stroke-opacity:1"><path
           d="M -9.3818454,-34.984412 H -20.824212 c -0.552285,0 -1,-0.447716 -1,-1 v -3 h -3.115947 c -0.552285,0 -1,-0.447716 -1,-1 v -4.171343 l -3.447,-1.718 c -0.538645,-0.268902 -0.719306,-0.949315 -0.385,-1.45 l 3.832,-5.75 v -1.7 c 0.0013,-6.07422 4.925783,-10.99765 11,-10.99765 6.0742161,0 10.9987046,4.92343 10.9999996,10.99765 -0.2467472,10.87342 -4.204739,9.190023 -4.3689902,13.304632 l -0.072696,5.484711 c -0.00366,0.276118 -0.1119288,0.526142 -0.2928932,0.707107 -0.1809644,0.180964 -0.4309645,0.292893 -0.7071066,0.292893 z m -10.4423666,-2 h 9.442366 l 0.11163,-5.682594 c -0.102553,-2.601106 4.5783172,-3.221492 4.3300566,-12.010667 -0.1403201,-4.967757 -4.030265,-9.093957 -8.9999996,-9.093957 -4.969734,0 -8.998829,4.028137 -9,8.997875 v 2 c -3.12e-4,0.197479 -0.05874,0.390499 -0.168,0.555 l -3.372,5.057 2.987,1.493 c 0.339052,0.169425 0.553177,0.515974 0.553,0.895 v 3.789343 h 3.115947 c 0.552285,0 1,0.447715 1,1 z"
           id="path1-5-94-2-1-0-6-1-4"
           style="fill:#000000;fill-opacity:1;stroke:none;stroke-width:1.24722;stroke-dasharray:none;stroke-opacity:1"
           sodipodi:nodetypes="ssscsscccccsccssscccsscccccccssc" /></g></g><circle
       style="fill:none;fill-opacity:1;stroke:#000000;stroke-width:8.27768;stroke-dasharray:none;stroke-opacity:1"
       id="path3-6-9-9-7-0"
       cx="236.36807"
       cy="286.07687"
       r="78.625557" /><text
       xml:space="preserve"
       style="font-size:75.2748px;line-height:0;font-family:'FiraCode Nerd Font';-inkscape-font-specification:'FiraCode Nerd Font';letter-spacing:0.0156823px;word-spacing:0.00784119px;fill:#000000;fill-opacity:1;stroke:none;stroke-width:1.99172;stroke-dasharray:none;stroke-opacity:1"
       x="372.78409"
       y="270.39825"
       id="text4-3-2-7-3-7-9-9"
       transform="scale(0.94891957,1.0538301)"><tspan
         sodipodi:role="line"
         id="tspan4-0-6-1-6-0-2-1"
         style="font-style:normal;font-variant:normal;font-weight:bold;font-stretch:normal;font-family:'Liberation Sans';-inkscape-font-specification:'Liberation Sans Bold';fill:#000000;fill-opacity:1;stroke:none;stroke-width:1.99172;stroke-dasharray:none;stroke-opacity:1"
         x="372.78409"
         y="270.39825">HUMAN MADE</tspan></text><text
       xml:space="preserve"
       style="font-size:41.7027px;line-height:0;font-family:'FiraCode Nerd Font';-inkscape-font-specification:'FiraCode Nerd Font';letter-spacing:0.00868811px;word-spacing:0.00434407px;fill:#000000;fill-opacity:1;stroke:none;stroke-width:1.10342;stroke-dasharray:none;stroke-opacity:1"
       x="368.07574"
       y="337.22388"
       id="text4-3-2-7-3-7-5-0-7"
       transform="scale(0.9654736,1.0357611)"><tspan
         sodipodi:role="line"
         id="tspan4-0-6-1-6-0-6-2-7"
         style="font-style:normal;font-variant:normal;font-weight:bold;font-stretch:normal;font-family:'Liberation Sans';-inkscape-font-specification:'Liberation Sans Bold';fill:#000000;fill-opacity:1;stroke:none;stroke-width:1.10342;stroke-dasharray:none;stroke-opacity:1"
         x="368.07574"
         y="337.22388">HUMANMADEMARK.COM</tspan></text><path
       style="fill:#000000;fill-opacity:1;stroke:#000000;stroke-width:8.78767;stroke-dasharray:none;stroke-opacity:1"
       d="m 343.6367,302.42594 508.80362,9e-5 h 9.5338"
       id="path4-1-1-9-3-1" /><g
       id="g3"
       transform="matrix(3.6103279,0,0,3.6103279,125.58535,239.6035)"><g
         id="g6"
         transform="translate(8.3274651,-15.941644)"><path
           d="m 23.345961,35.391177 v -7.459282 c 0.04574,0 0.09148,0.0073 0.137225,0.0073 3.777633,-0.0049 6.593209,-3.485154 5.809201,-7.180538 -0.07516,-0.353276 -0.351147,-0.629258 -0.704423,-0.704423 -3.134684,-0.669475 -6.23409,1.272819 -6.998486,4.385718 -0.0091,-0.0091 -0.01647,-0.01921 -0.02561,-0.02836 -1.420651,-1.426268 -3.468264,-2.033696 -5.436863,-1.612854 -0.353276,0.07516 -0.629258,0.351148 -0.704423,0.704423 -0.783931,3.695019 2.031027,7.175034 5.808286,7.180538 0.09148,0 0.190286,-0.01098 0.285428,-0.01555 v 4.723028 z m 1.097802,-12.430494 c 0.828401,-0.829409 1.971105,-1.266325 3.141542,-1.201178 0.135018,2.451803 -1.889974,4.477223 -4.341805,4.342721 -0.06859,-1.170797 0.36847,-2.314748 1.200263,-3.141543 z m -6.112926,4.684869 c -0.83269,-0.826561 -1.271597,-1.970116 -1.205753,-3.141543 2.453263,-0.138246 4.480569,1.889488 4.341806,4.342721 -1.169154,0.06559 -2.310626,-0.37149 -3.136968,-1.201178 z"
           id="path1"
           sodipodi:nodetypes="cccccccccccccccccccccc"
           style="stroke-width:0.914835" /></g></g></g></svg>
