<?xml version="1.0" encoding="UTF-8" standalone="no"?>
<!DOCTYPE svg PUBLIC "-//W3C//DTD SVG 1.1//EN" "http://www.w3.org/Graphics/SVG/1.1/DTD/svg11.dtd">
<svg width="939px" height="939px" version="1.1" xmlns="http://www.w3.org/2000/svg" xmlns:xlink="http://www.w3.org/1999/xlink" xml:space="preserve" xmlns:serif="http://www.serif.com/" style="fill-rule:evenodd;clip-rule:evenodd;">
    <g id="Layer-1" serif:id="Layer 1" transform="matrix(1,0,0,1,-423.823,-610.791)">
        <g id="g2-9-3-6-3-61-5-6-9" transform="matrix(3.5728,0,0,3.5728,1098.12,1751.89)">
            <g id="g3-6-5-4-22-3-2-5">
                <g id="g2-9-3-6-3-61-5-6-91" serif:id="g2-9-3-6-3-61-5-6-9">
                    <path id="path1-5-94-2-1-0-6-1-4" d="M-35.459,-132.225L-78.706,-132.225C-80.793,-132.225 -82.485,-133.917 -82.485,-136.004L-82.485,-147.343L-94.262,-147.343C-96.349,-147.343 -98.042,-149.035 -98.042,-151.122L-98.042,-166.888L-111.07,-173.381C-113.105,-174.397 -113.788,-176.969 -112.525,-178.861L-98.042,-200.594L-98.042,-207.019C-98.037,-229.977 -79.424,-248.585 -56.467,-248.585C-33.509,-248.585 -14.897,-229.977 -14.892,-207.019C-15.825,-165.923 -30.784,-172.285 -31.405,-156.734L-31.679,-136.004C-31.693,-134.96 -32.102,-134.016 -32.786,-133.332C-33.47,-132.648 -34.415,-132.225 -35.459,-132.225ZM-74.926,-139.784L-39.238,-139.784L-38.817,-161.261C-39.204,-171.092 -21.513,-173.437 -22.451,-206.656C-22.981,-225.432 -37.683,-241.027 -56.467,-241.027C-75.25,-241.027 -90.478,-225.802 -90.482,-207.019L-90.482,-199.46C-90.484,-198.713 -90.704,-197.984 -91.117,-197.362L-103.862,-178.249L-92.573,-172.606C-91.291,-171.966 -90.482,-170.656 -90.482,-169.224L-90.482,-154.902L-78.706,-154.902C-76.618,-154.902 -74.926,-153.21 -74.926,-151.122L-74.926,-139.784Z" style="fill-rule:nonzero;"/>
                </g>
            </g>
        </g>
        <g transform="matrix(1.36934,0,0,1.36935,-945.973,527.015)">
            <path d="M1686.06,71.172L1686.06,736.911C1686.06,742.43 1681.58,746.904 1676.06,746.904L1010.33,746.904C1004.81,746.904 1000.33,742.43 1000.33,736.911L1000.33,71.172C1000.33,65.653 1004.81,61.179 1010.33,61.179L1676.06,61.179C1681.58,61.179 1686.06,65.653 1686.06,71.172ZM1666.07,81.166L1020.32,81.166L1020.32,726.918L1666.07,726.918L1666.07,81.166Z"/>
        </g>
        <circle id="path3-6-9-9-7-0" cx="893.36" cy="1081.24" r="297.167" style="fill:none;stroke:black;stroke-width:31.29px;"/>
        <g id="g6" transform="matrix(3.61033,0,0,3.61033,588.284,688.059)">
            <g id="g3">
                <g id="g61" serif:id="g6">
                    <path id="path1" d="M88.237,133.762L88.237,105.569C88.41,105.569 88.582,105.597 88.755,105.597C103.033,105.578 113.675,92.425 110.711,78.458C110.427,77.123 109.384,76.08 108.049,75.796C96.201,73.265 84.487,80.606 81.598,92.371C81.564,92.337 81.536,92.299 81.501,92.264C76.132,86.874 68.393,84.578 60.952,86.168C59.617,86.453 58.574,87.496 58.29,88.831C55.327,102.796 65.966,115.949 80.243,115.97C80.588,115.97 80.962,115.928 81.321,115.911L81.321,133.762L88.237,133.762ZM92.386,86.781C95.517,83.646 99.836,81.994 104.259,82.241C104.77,91.507 97.116,99.162 87.849,98.654C87.59,94.229 89.242,89.905 92.386,86.781ZM69.282,104.487C66.135,101.363 64.476,97.041 64.725,92.614C73.997,92.091 81.659,99.755 81.135,109.027C76.716,109.275 72.402,107.623 69.278,104.487L69.282,104.487Z" style="fill-rule:nonzero;"/>
                </g>
            </g>
        </g>
    </g>
</svg>
